<svg width="37" height="37" viewBox="0 0 37 37" fill="none" xmlns="http://www.w3.org/2000/svg">
<g clip-path="url(#clip0_40_82)">
<path d="M7.29946 6.90255C8.59665 6.90255 9.89383 6.90255 11.191 6.90255C11.3521 6.90255 11.5174 6.90255 11.6764 6.92798C12.2911 7.02759 12.6874 7.53199 12.6493 8.1466C12.6133 8.72518 12.1406 9.18931 11.5365 9.19991C10.5997 9.21475 9.6628 9.20627 8.72594 9.20627C7.4012 9.20627 6.07859 9.20627 4.75385 9.20627C3.91025 9.20627 3.44819 8.75485 3.44607 7.91771C3.44183 5.70724 3.44183 3.4989 3.44607 1.28843C3.44819 0.525466 3.94205 -0.00860673 4.61184 -0.000129388C5.28586 0.00834796 5.75005 0.538182 5.75005 1.3075C5.75005 2.53036 5.75005 3.75322 5.75005 5.06296C5.88782 4.9464 5.97473 4.87434 6.05951 4.79805C10.0613 1.22485 14.7498 -0.371013 20.0827 0.0846441C28.3702 0.794622 35.1656 7.11448 36.5645 15.3184C38.2559 25.2433 31.5983 34.757 21.7232 36.5309C11.8756 38.2984 2.45622 31.9637 0.391751 22.1491C0.148 20.9834 0.0928905 19.7754 0.00386814 18.5822C-0.0533605 17.8087 0.440502 17.2852 1.12513 17.2725C1.83307 17.2597 2.2909 17.7641 2.30361 18.5716C2.42019 25.6099 6.87131 31.6098 13.5925 33.7821C21.7804 36.4291 30.8777 31.8514 33.631 23.6983C36.5454 15.0705 32.0689 5.91706 23.3765 3.11953C17.5074 1.22909 12.1703 2.49009 7.52414 6.56557C7.433 6.64611 7.32702 6.70969 7.2274 6.78175L7.29735 6.90043L7.29946 6.90255Z" fill="#246A73"/>
<path d="M19.5595 24.2007C19.5595 24.5589 19.5659 24.9064 19.5595 25.254C19.5468 25.9682 19.0678 26.4684 18.4107 26.4642C17.7536 26.4599 17.2852 25.9619 17.2725 25.2413C17.2661 24.9064 17.2725 24.5716 17.2725 24.1732C16.891 24.1732 16.5349 24.1732 16.1809 24.1732C15.7824 24.1732 15.3818 24.1837 14.9833 24.1689C14.3029 24.1456 13.8154 23.6497 13.8218 23.0012C13.8282 22.3548 14.322 21.8673 15.0088 21.8631C16.52 21.8546 18.0292 21.8673 19.5404 21.8567C20.4476 21.8504 20.9987 20.9433 20.5748 20.1697C20.3353 19.731 19.9389 19.5551 19.4556 19.553C18.6947 19.5488 17.9317 19.5657 17.1707 19.5466C15.4984 19.5043 14.0783 18.2496 13.8536 16.641C13.6162 14.9392 14.5848 13.3539 16.1978 12.8347C16.5264 12.7287 16.8761 12.6885 17.2704 12.6058C17.2704 12.2816 17.2661 11.9361 17.2704 11.5928C17.281 10.8722 17.7451 10.3699 18.4001 10.3636C19.0699 10.3551 19.5468 10.8658 19.5574 11.6055C19.5616 11.9403 19.5574 12.2731 19.5574 12.6567C20.3268 12.6567 21.0602 12.6503 21.7914 12.6567C22.4443 12.663 22.9296 13.0742 22.9975 13.657C23.0822 14.3882 22.5714 14.9583 21.7999 14.9625C20.3014 14.971 18.8028 14.9583 17.3043 14.9668C16.4077 14.971 15.8502 15.8293 16.2275 16.6029C16.4628 17.084 16.8782 17.2684 17.3912 17.2684C18.1394 17.2684 18.8897 17.2556 19.6379 17.2747C21.359 17.315 22.8173 18.6332 22.9826 20.2757C23.1649 22.0983 22.0627 23.6772 20.3226 24.0778C20.0809 24.1329 19.8329 24.1562 19.5553 24.1986L19.5595 24.2007Z" fill="#246A73"/>
</g>
<defs>
<clipPath id="clip0_40_82">
<rect width="36.8277" height="36.8277" fill="white"/>
</clipPath>
</defs>
</svg>
