<svg width="44" height="44" viewBox="0 0 44 44" fill="none" xmlns="http://www.w3.org/2000/svg">
<g clip-path="url(#clip0_40_99)">
<path d="M0.556211 20.707C1.01235 18.6635 2.29537 17.1931 3.74427 15.81C4.86143 14.7434 5.90298 13.5995 7.00795 12.5204C7.1982 12.3335 7.5275 12.2213 7.80069 12.2089C8.61051 12.169 9.42765 12.2189 10.2375 12.1914C11.6669 12.1416 12.8377 12.6774 13.8329 13.6992C15.855 15.7726 17.8869 17.8386 19.9187 19.907C21.3457 21.3599 23.1044 21.3624 24.5337 19.907C26.5656 17.8411 28.5999 15.7776 30.6171 13.6992C31.5953 12.6899 32.7637 12.3185 34.1418 12.1815C35.92 12.0045 37.2177 12.5403 38.3397 13.9509C39.2373 15.0798 40.3447 16.0393 41.3595 17.0735C43.9865 19.7426 44.0646 23.7873 41.4985 26.5286C39.9959 28.1335 38.4324 29.6762 36.8835 31.2337C36.7323 31.3857 36.4883 31.5178 36.281 31.5253C35.4444 31.5527 34.6077 31.5552 33.771 31.5178C32.5758 31.4655 31.5587 30.9895 30.7123 30.1173C28.7072 28.0588 26.6924 26.0102 24.6776 23.9617C23.1092 22.3668 21.3408 22.3643 19.7846 23.9518C17.8064 25.9679 15.8208 27.9765 13.8548 30.0051C12.8426 31.0518 11.6547 31.5951 10.1984 31.5403C9.24471 31.5054 8.18365 31.7895 7.36651 31.4456C6.54693 31.0992 5.97372 30.1521 5.29317 29.4668C4.80045 28.9684 4.32724 28.45 3.81989 27.9715C2.35148 26.5884 1.01722 25.1206 0.553772 23.0496V20.7095L0.556211 20.707Z" fill="#246A73"/>
<path d="M20.792 43.6794C18.7308 43.2009 17.3112 41.7804 15.9038 40.3001C13.9231 38.2167 11.8888 36.1856 9.87159 34.1395C9.68864 33.9551 9.46668 33.8106 9.26422 33.6461L9.36423 33.4891C10.0643 33.4418 10.7692 33.4318 11.4644 33.3371C12.8377 33.1477 13.9914 32.4997 14.9696 31.5004C16.9941 29.4269 19.026 27.3585 21.0578 25.2925C21.9408 24.3929 22.4872 24.3954 23.3653 25.2925C25.1094 27.0669 26.8925 28.8039 28.5804 30.6331C30.2147 32.405 32.0538 33.6062 34.6614 33.3944C34.5028 33.6137 34.4296 33.7508 34.3272 33.8554C31.7758 36.4622 29.2122 39.0565 26.6729 41.6732C25.6655 42.7099 24.4191 43.2607 23.0922 43.6819H20.7968L20.792 43.6794Z" fill="#246A73"/>
<path d="M34.5931 10.2725C34.0369 10.3174 33.493 10.3298 32.9563 10.4096C31.5879 10.6164 30.4317 11.2494 29.4536 12.2513C27.4315 14.3272 25.3996 16.3907 23.3702 18.4566C22.4994 19.3413 21.9457 19.3364 21.0651 18.4417C19.1528 16.4953 17.2136 14.5789 15.3452 12.5902C13.8451 10.9952 12.0742 10.1928 9.90816 10.2925C9.78864 10.2974 9.66912 10.2925 9.5496 10.2875C9.50569 10.2875 9.46178 10.265 9.31787 10.2277C9.46666 10.0432 9.57887 9.87877 9.71303 9.7417C12.2303 7.17232 14.7378 4.59298 17.2697 2.03856C19.8968 -0.613057 23.8044 -0.705266 26.4802 1.9289C29.2292 4.63535 31.8684 7.46141 34.5906 10.2725H34.5931Z" fill="#246A73"/>
</g>
<defs>
<clipPath id="clip0_40_99">
<rect width="42.8229" height="43.6794" fill="white" transform="translate(0.556213)"/>
</clipPath>
</defs>
</svg>
