<svg width="48" height="31" viewBox="0 0 48 31" fill="none" xmlns="http://www.w3.org/2000/svg">
<path d="M23.5783 0.00257109C29.4624 0.00257109 35.3465 -0.00530288 41.2307 0.00650808C44.0297 0.0124136 46.2906 1.72697 46.9314 4.32341C47.0523 4.8116 47.0926 5.32931 47.0946 5.83325C47.1047 12.2249 47.1067 18.6186 47.0987 25.0103C47.0946 28.3725 44.5979 30.8233 41.1521 30.8252C29.4181 30.8351 17.6841 30.8351 5.95012 30.8252C2.50428 30.8233 0.00755666 28.3725 0.00352644 25.0083C-0.000503777 18.6009 -0.00251889 12.1915 0.00554155 5.78207C0.0115869 2.4435 2.50629 0.0104451 5.92593 0.00650808C11.8101 -0.00333439 17.6942 0.00453959 23.5783 0.00453959V0.00257109ZM44.4186 10.9415H2.68765C2.67758 11.1403 2.66146 11.3214 2.66146 11.5025C2.66146 15.9454 2.65743 20.3883 2.66146 24.8292C2.66146 26.9906 3.90478 28.2091 6.10528 28.2091C17.7345 28.2091 29.3637 28.1894 40.9929 28.2308C42.8508 28.2367 44.4831 27.0044 44.4589 24.8351C44.4085 20.3942 44.4448 15.9513 44.4427 11.5084C44.4427 11.3273 44.4266 11.1442 44.4186 10.9415ZM44.3863 8.30567C44.3863 7.19347 44.477 6.13639 44.3642 5.10097C44.1969 3.56751 42.8105 2.60098 40.9687 2.60098C29.3576 2.60098 17.7466 2.60098 6.13551 2.60098C5.90981 2.60098 5.68412 2.60886 5.46044 2.63051C4.19697 2.75452 3.06851 3.55176 2.83879 4.76042C2.62115 5.90805 2.6675 7.10292 2.59697 8.30567H44.3863Z" fill="#246A73"/>
</svg>
