<svg width="44" height="44" viewBox="0 0 44 44" fill="none" xmlns="http://www.w3.org/2000/svg">
<g clip-path="url(#clip0_40_93)">
<path d="M39.3298 11.4741C38.0821 12.0289 36.9357 12.5411 35.787 13.0533C31.0412 15.166 26.2907 17.2716 21.5496 19.3961C20.9882 19.6487 20.5046 19.6345 19.9433 19.3819C14.2681 16.8396 8.5835 14.3162 2.90127 11.7904C2.68898 11.696 2.46961 11.611 2.18185 11.4907V12.0997C2.18185 18.9311 2.18656 25.7601 2.17241 32.5915C2.17241 32.9833 2.26912 33.184 2.64652 33.3516C8.50566 35.9411 14.3577 38.5448 20.2074 41.1579C20.5612 41.316 20.8419 41.3515 21.2028 41.1555C21.8798 40.7849 22.5355 40.9714 22.8209 41.5545C23.1111 42.1469 22.8327 42.6922 22.177 43.1148C21.2524 43.7096 20.4244 43.6789 19.4125 43.2186C13.2538 40.4214 7.06446 37.6903 0.879815 34.952C0.271257 34.6782 0 34.284 0 33.6112C0.0117938 25.7389 0.00943501 17.8688 0 9.99643C0 9.34492 0.271257 8.95544 0.856227 8.69578C7.24373 5.86313 13.6265 3.02577 20.0022 0.174237C20.5282 -0.0618166 20.9905 -0.0570955 21.5142 0.176598C27.8616 3.01396 34.2113 5.84189 40.5682 8.65329C41.2357 8.94835 41.5188 9.37561 41.514 10.1097C41.4928 13.542 41.5046 16.9742 41.5046 20.4064C41.5046 20.5079 41.507 20.6118 41.5023 20.7133C41.4622 21.3671 40.9998 21.8062 40.3771 21.7897C39.778 21.7732 39.3416 21.3412 39.3369 20.692C39.3228 18.695 39.3298 16.6956 39.3298 14.6986C39.3298 13.66 39.3298 12.6213 39.3298 11.4718V11.4741ZM13.0746 13.8937C13.2232 13.9763 13.2892 14.0188 13.36 14.0495C15.7258 15.1023 18.0893 16.1598 20.4622 17.1913C20.658 17.2763 20.9646 17.2386 21.1698 17.1489C26.5124 14.786 31.8479 12.4065 37.1857 10.0295C37.3296 9.96575 37.4688 9.88785 37.6693 9.78634C37.516 9.70845 37.4452 9.66832 37.3697 9.63527C35.0204 8.58955 32.6734 7.53439 30.3147 6.51228C30.1071 6.42258 29.7816 6.46507 29.5599 6.56185C24.5122 8.7902 19.4715 11.0374 14.4308 13.2799C14.0016 13.4711 13.5746 13.6671 13.0746 13.8937ZM27.3073 5.15733C25.2033 4.2202 23.2101 3.34208 21.2264 2.43799C20.8797 2.27984 20.6037 2.29872 20.2664 2.4498C15.4616 4.59788 10.6521 6.73417 5.84263 8.87282C5.19869 9.1608 4.55475 9.45351 3.8259 9.78162C4.06649 9.89965 4.21037 9.97519 4.36133 10.0413C6.19644 10.8604 8.03863 11.6677 9.8643 12.5033C10.211 12.6615 10.4799 12.652 10.8196 12.501C14.9545 10.6503 19.0941 8.81144 23.2337 6.97258C24.5523 6.38481 25.8708 5.79704 27.3073 5.15969V5.15733Z" fill="#246A73"/>
<path d="M43.6794 32.7548C43.6982 38.7341 38.8109 43.6581 32.8362 43.6794C26.7435 43.703 21.8586 38.8167 21.8468 32.6887C21.835 26.7472 26.7931 21.7972 32.7466 21.8066C38.7944 21.8161 43.6581 26.6859 43.6794 32.7525V32.7548ZM32.7277 41.4817C37.4759 41.5313 41.4504 37.6482 41.5046 32.9035C41.5612 28.0314 37.6999 24.0492 32.8857 24.0137C27.996 23.9783 24.064 27.8425 24.0263 32.7194C23.9885 37.5113 27.8805 41.4298 32.7277 41.4817Z" fill="#246A73"/>
<path d="M31.6592 34.5016C33.1216 33.0381 34.5156 31.6383 35.912 30.2432C36.0936 30.0614 36.2682 29.8726 36.4687 29.7168C36.9121 29.3722 37.4711 29.4052 37.8698 29.7758C38.2778 30.1582 38.3344 30.7484 37.9995 31.2158C37.9004 31.3527 37.7754 31.473 37.6551 31.5934C36.0064 33.2458 34.3552 34.8982 32.7041 36.5506C31.9422 37.3107 31.4162 37.3154 30.6661 36.5647C29.8335 35.7338 28.9961 34.9076 28.1777 34.0626C27.8097 33.6825 27.7602 33.1561 27.996 32.743C28.2295 32.3346 28.706 32.1057 29.1754 32.2449C29.4231 32.3181 29.6637 32.4857 29.8524 32.6675C30.4515 33.2458 31.0247 33.8525 31.6592 34.5016Z" fill="#246A73"/>
</g>
<defs>
<clipPath id="clip0_40_93">
<rect width="43.6794" height="43.6794" fill="white"/>
</clipPath>
</defs>
</svg>
