<svg width="241" height="34" viewBox="0 0 241 34" fill="none" xmlns="http://www.w3.org/2000/svg">
<path d="M28.4866 23.7879C27.7516 26.157 26.6207 27.9834 25.0997 29.2726C23.5787 30.5618 21.6958 31.2064 19.451 31.2064H10.4606V18.2522H17.8338C18.9421 18.2805 19.8637 18.665 20.5988 19.4057C21.3339 20.1408 21.7071 21.0794 21.7071 22.2159V22.5835H22.1198V11.9363H21.7071V12.3491C21.7071 13.4573 21.3395 14.3847 20.5988 15.1367C19.8637 15.8887 18.9251 16.2845 17.7886 16.3128H10.4606V2.90632H13.5026C14.8879 2.96852 15.9849 3.42087 16.7991 4.26902C17.6133 5.11718 18.0035 6.22543 17.9752 7.61074V8.16487H18.4841V0.0904541C18.1787 0.21485 17.5172 0.384481 16.4994 0.599346C15.4873 0.814211 14.2999 0.921644 12.9485 0.921644H0V1.3853H0.599361C1.09129 1.3853 1.56626 1.5097 2.02991 1.75283C2.95157 2.27303 3.46046 3.07595 3.55093 4.15028V29.8267C3.52266 30.624 3.22298 31.3081 2.65189 31.8792C2.0808 32.4503 1.40228 32.733 0.599361 32.733H0V33.1967H26.779L28.9446 23.7935H28.481L28.4866 23.7879Z" fill="#246A73"/>
<path d="M62.9273 2.18822C63.4814 1.65105 64.143 1.37965 64.912 1.37965H65.7884V0.915988H51.8222V1.37965H52.6533C53.4223 1.37965 54.0839 1.65105 54.638 2.18822C55.1922 2.72538 55.4805 3.3926 55.5145 4.19551V22.4025L32.2298 0.231812H31.8171L31.9075 0.921643C32.1846 2.27303 32.3203 3.96369 32.3203 5.9936V29.9172C32.3203 30.7144 32.0432 31.3873 31.4891 31.9245C30.935 32.4616 30.2621 32.733 29.4592 32.733H28.628V33.1967H42.5943V32.733H41.7178C40.9488 32.733 40.2873 32.4673 39.7331 31.9245C39.179 31.3873 38.902 30.7314 38.902 29.9681V11.6593L62.1809 33.83H62.5937L62.458 33.1401C62.1809 31.7266 62.0452 29.9907 62.0452 27.9325V4.15028C62.0735 3.38129 62.3675 2.73104 62.9217 2.19387L62.9273 2.18822Z" fill="#246A73"/>
<path d="M95.2928 19.7281C94.5578 24.2176 93.2347 27.3784 91.3291 29.2217C89.4519 31.0028 86.7321 31.8962 83.1699 31.8962C79.7264 31.8058 77.001 30.4204 74.988 27.7459C72.9751 25.0714 71.9686 21.4639 71.9686 16.9122C71.9686 12.3604 73.0203 8.77557 75.1238 6.1463C77.2272 3.51702 80.0939 2.20521 83.7184 2.20521C89.3105 2.20521 92.8897 5.03239 94.456 10.6867H94.8235L94.7331 2.75934C91.5383 1.09696 87.7104 0.271423 83.2547 0.271423C77.4138 0.271423 72.8224 1.76983 69.4694 4.76663C66.122 7.76344 64.4427 11.8572 64.4427 17.0535C64.4427 22.2499 66.1333 26.3323 69.5146 29.3178C72.8959 32.2977 77.5495 33.7961 83.4809 33.8131C89.4123 33.83 93.6248 31.7775 96.1127 27.6611L95.6547 19.7337H95.2872L95.2928 19.7281Z" fill="#246A73"/>
<path d="M194.629 1.38532H195.46C196.229 1.38532 196.89 1.65673 197.444 2.19389C197.999 2.73105 198.287 3.39827 198.321 4.20119V22.4082L175.042 0.231829H174.629L174.72 0.92166C174.997 2.27305 175.132 3.9637 175.132 5.99362V29.9172C175.132 30.7145 174.855 31.3873 174.301 31.9245C173.747 32.4616 173.074 32.7331 172.271 32.7331H171.072C170.337 32.7331 169.614 32.5125 168.907 32.0658C168.2 31.6191 167.618 30.9519 167.154 30.0585L153.47 0H153.058C152.967 0.983858 152.198 2.99681 150.751 6.03885L140.104 30.149C139.64 31.0085 139.058 31.6531 138.351 32.0828C137.644 32.5125 136.937 32.7274 136.23 32.7274H135.399C134.602 32.7274 133.906 32.4447 133.324 31.8736C132.742 31.3082 132.448 30.624 132.448 29.8211V4.286C132.448 3.48874 132.742 2.80456 133.324 2.23347C133.906 1.66238 134.602 1.37966 135.399 1.37966H135.999V0.916005H121.987V1.37966H122.586C123.384 1.37966 124.068 1.65673 124.639 2.21085C125.21 2.76498 125.51 3.43785 125.538 4.24077V16.1319H110.605V4.24077C110.605 3.4435 110.899 2.76498 111.481 2.21085C112.064 1.65673 112.753 1.37966 113.556 1.37966H114.111L114.156 0.916005H100.144V1.37966H100.744C101.541 1.37966 102.225 1.65673 102.796 2.21085C103.367 2.76498 103.667 3.43785 103.695 4.24077V29.8267C103.667 30.624 103.367 31.3082 102.796 31.8792C102.225 32.4503 101.547 32.7331 100.744 32.7331H100.144V33.1967H114.156L114.111 32.7331H113.556C112.759 32.7331 112.064 32.4503 111.481 31.8792C110.899 31.3138 110.605 30.6296 110.605 29.8267V18.1166H125.538V29.872C125.51 30.6692 125.136 31.4212 124.43 32.128C124 32.5295 123.384 32.7274 122.586 32.7274H121.987V33.1911H145.679V32.7274H145.311C144.604 32.7274 144.09 32.5182 143.768 32.1054C143.445 31.6927 143.281 31.3082 143.281 30.9519C143.281 30.5957 143.355 30.2225 143.513 29.8211L145.911 24.1497H156.699L158.961 29.8211C159.114 30.1886 159.193 30.5561 159.193 30.9293C159.193 31.3025 159.029 31.687 158.706 32.1054C158.384 32.5182 157.887 32.7274 157.208 32.7274H156.795V33.1911H185.418V32.7274H184.541C183.772 32.7274 183.111 32.4616 182.562 31.9188C182.008 31.3817 181.731 30.7258 181.731 29.9624V11.6593L205.01 33.83H205.423L205.287 33.1402C205.01 31.7266 204.874 29.9907 204.874 27.9325V4.1503C204.902 3.3813 205.197 2.73105 205.751 2.19389C206.305 1.65673 206.966 1.38532 207.73 1.38532H208.606V0.92166H194.64V1.38532H194.629ZM146.691 22.2216L151.441 10.8846L155.913 22.2216H146.697H146.691Z" fill="#246A73"/>
<path d="M238.286 0.508915C237.33 0.72378 236.103 0.848176 234.599 0.876448H216.025C215.075 0.876448 214.034 0.785978 212.915 0.599384C211.795 0.412791 211.015 0.231851 210.585 0.0452576V8.06879H211.043V7.51466C211.043 6.12934 211.456 5.00978 212.287 4.15032C213.118 3.29086 214.238 2.84416 215.651 2.81589H221.877V29.9229C221.815 30.6919 221.498 31.3534 220.933 31.9075C220.362 32.4617 219.694 32.7387 218.925 32.7387H218.326V33.2024H232.337L232.292 32.7387H231.738C230.941 32.7387 230.257 32.4617 229.686 31.9075C229.114 31.3534 228.815 30.6805 228.786 29.8776V2.81024H234.961C236.375 2.84416 237.494 3.2852 238.325 4.14466C239.157 5.00413 239.569 6.12934 239.569 7.50901V8.06313H240.033V0.0452576C239.818 0.135727 239.236 0.294049 238.28 0.508915H238.286Z" fill="#246A73"/>
<path d="M81.0212 14.7748C79.8225 15.9735 78.4089 16.7482 76.6957 16.9291C78.4089 17.1101 79.8282 17.8904 81.0269 19.0891C82.22 20.2878 82.9946 21.7014 83.1812 23.4147C83.3621 21.7014 84.1424 20.2821 85.3355 19.0891C86.5342 17.8904 87.9535 17.1101 89.6668 16.9291C87.9535 16.7482 86.5342 15.9679 85.3412 14.7748C84.1424 13.5761 83.3678 12.1568 83.1812 10.4436C83.0003 12.1625 82.22 13.5761 81.0212 14.7748Z" fill="#246A73"/>
</svg>
